<svg width="78" height="34" viewBox="0 0 78 34" fill="none" xmlns="http://www.w3.org/2000/svg">
<rect width="78" height="34" rx="17" fill="black"/>
<path d="M29.5646 18.3665C28.6837 18.6019 27.776 18.721 26.8645 18.7209C24.089 18.7209 21.4825 17.6355 19.5247 15.6662C18.2391 14.3655 17.3148 12.7485 16.844 10.9765C16.3732 9.20449 16.3724 7.3393 16.8415 5.56685C16.9001 5.34524 16.8997 5.11203 16.8404 4.89061C16.7811 4.66918 16.665 4.46734 16.5037 4.30532C16.3423 4.14331 16.1415 4.02681 15.9213 3.96753C15.7011 3.90824 15.4692 3.90825 15.249 3.96754C13.0431 4.55886 11.0306 5.72328 9.41331 7.34401C4.34591 12.4414 4.34591 20.7387 9.41331 25.8387C10.6178 27.0571 12.0505 28.023 13.6286 28.6807C15.2067 29.3384 16.8988 29.6747 18.6069 29.6702C20.3146 29.6751 22.0063 29.339 23.584 28.6815C25.1616 28.0241 26.5939 27.0582 27.7979 25.84C29.4103 24.2128 30.5684 22.1873 31.1558 19.9672C31.2142 19.7456 31.2137 19.5126 31.1544 19.2913C31.0951 19.0701 30.9792 18.8683 30.8181 18.7063C30.657 18.5442 30.4564 18.4276 30.2365 18.368C30.0165 18.3083 29.7848 18.3078 29.5646 18.3665ZM25.961 23.9909C24.9977 24.9653 23.8518 25.7378 22.5897 26.2637C21.3276 26.7896 19.9743 27.0585 18.6082 27.0548C17.2416 27.0583 15.888 26.7891 14.6254 26.263C13.3629 25.7369 12.2166 24.9642 11.2528 23.9896C7.19941 19.9109 7.19941 13.2731 11.2528 9.19439C12.0361 8.40738 12.9403 7.75255 13.9308 7.25508C13.7858 9.13693 14.0464 11.0281 14.6949 12.7993C15.3433 14.5705 16.3642 16.18 17.6878 17.5179C19.0149 18.8535 20.6144 19.8833 22.376 20.536C24.1375 21.1888 26.0189 21.4489 27.8902 21.2984C27.393 22.293 26.7418 23.2019 25.961 23.9909Z" fill="#F1C40F"/>
<path d="M53.4948 17.0256C53.4948 20.6362 56.4146 23.5733 60.0039 23.5733C63.5932 23.5733 66.513 20.6362 66.513 17.0256C66.513 13.4151 63.5932 10.478 60.0039 10.478C56.4146 10.478 53.4948 13.4151 53.4948 17.0256ZM60.0039 13.0934C62.1593 13.0934 63.913 14.8575 63.913 17.0256C63.913 19.1938 62.1593 20.9579 60.0039 20.9579C57.8485 20.9579 56.0948 19.1938 56.0948 17.0256C56.0948 14.8575 57.8485 13.0934 60.0039 13.0934ZM58.7013 26.1795H61.3013V30.1026H58.7013V26.1795ZM58.7013 3.94872H61.3013V7.87179H58.7013V3.94872ZM47.0013 15.7179H50.9013V18.3333H47.0013V15.7179ZM69.1013 15.7179H73.0013V18.3333H69.1013V15.7179ZM49.8886 25.3465L52.6446 22.5716L54.4841 24.4206L51.7281 27.1956L49.8886 25.3465ZM65.5159 9.62933L68.2745 6.85441L70.1127 8.70348L67.3541 11.4784L65.5159 9.62933ZM52.6485 11.4797L49.8899 8.70479L51.7294 6.85572L54.4854 9.63064L52.6485 11.4797ZM70.1127 25.3478L68.2745 27.1969L65.5159 24.4219L67.3541 22.5729L70.1127 25.3478Z" fill="#F39C12"/>
<ellipse cx="18.2765" cy="17.0513" rx="14.3" ry="14.3846" fill="#FAEBD7"/>
</svg>
