<svg width="78" height="34" viewBox="0 0 78 34" fill="none" xmlns="http://www.w3.org/2000/svg">
<rect width="78" height="34" rx="17" fill="#FAEBD7"/>
<path d="M28.6214 18.3922C27.7404 18.6275 26.8328 18.7467 25.9213 18.7466C23.1458 18.7466 20.5393 17.6612 18.5815 15.6918C17.2959 14.3911 16.3716 12.7742 15.9008 11.0021C15.43 9.23013 15.4291 7.36494 15.8983 5.59249C15.9569 5.37088 15.9565 5.13766 15.8972 4.91624C15.8379 4.69482 15.7218 4.49298 15.5605 4.33096C15.3991 4.16894 15.1983 4.05245 14.9781 3.99316C14.7579 3.93387 14.526 3.93388 14.3058 3.99318C12.0999 4.5845 10.0874 5.74892 8.47011 7.36964C3.40271 12.467 3.40271 20.7643 8.47011 25.8643C9.67459 27.0827 11.1073 28.0487 12.6854 28.7064C14.2635 29.364 15.9556 29.7004 17.6637 29.6959C19.3714 29.7007 21.0631 29.3646 22.6407 28.7072C24.2184 28.0497 25.6507 27.0839 26.8547 25.8656C28.4671 24.2385 29.6252 22.213 30.2126 19.9928C30.271 19.7713 30.2705 19.5382 30.2112 19.317C30.1519 19.0957 30.036 18.894 29.8749 18.7319C29.7138 18.5699 29.5132 18.4532 29.2933 18.3936C29.0733 18.334 28.8416 18.3335 28.6214 18.3922ZM25.0178 24.0166C24.0545 24.9909 22.9086 25.7634 21.6465 26.2893C20.3844 26.8153 19.0311 27.0842 17.665 27.0805C16.2984 27.0839 14.9447 26.8148 13.6822 26.2886C12.4197 25.7625 11.2734 24.9898 10.3096 24.0153C6.25621 19.9366 6.25621 13.2987 10.3096 9.22003C11.0929 8.43302 11.9971 7.77818 12.9876 7.28072C12.8426 9.16256 13.1032 11.0537 13.7516 12.8249C14.4001 14.5961 15.421 16.2057 16.7446 17.5435C18.0716 18.8791 19.6712 19.9089 21.4328 20.5617C23.1943 21.2144 25.0757 21.4745 26.947 21.324C26.4498 22.3187 25.7986 23.2275 25.0178 24.0166Z" fill="#F1C40F"/>
<path d="M54.8203 17.0256C54.8203 20.6362 57.7401 23.5733 61.3294 23.5733C64.9187 23.5733 67.8385 20.6362 67.8385 17.0256C67.8385 13.4151 64.9187 10.478 61.3294 10.478C57.7401 10.478 54.8203 13.4151 54.8203 17.0256ZM61.3294 13.0934C63.4848 13.0934 65.2385 14.8575 65.2385 17.0256C65.2385 19.1938 63.4848 20.9579 61.3294 20.9579C59.174 20.9579 57.4203 19.1938 57.4203 17.0256C57.4203 14.8575 59.174 13.0934 61.3294 13.0934ZM60.0268 26.1795H62.6268V30.1026H60.0268V26.1795ZM60.0268 3.94872H62.6268V7.87179H60.0268V3.94872ZM48.3268 15.7179H52.2268V18.3333H48.3268V15.7179ZM70.4268 15.7179H74.3268V18.3333H70.4268V15.7179ZM51.2141 25.3465L53.9701 22.5716L55.8096 24.4206L53.0536 27.1956L51.2141 25.3465ZM66.8414 9.62933L69.6 6.85441L71.4382 8.70348L68.6796 11.4784L66.8414 9.62933ZM53.974 11.4797L51.2154 8.70479L53.0549 6.85572L55.8109 9.63064L53.974 11.4797ZM71.4382 25.3478L69.6 27.1969L66.8414 24.4219L68.6796 22.5729L71.4382 25.3478Z" fill="#F39C12"/>
<ellipse cx="60.0294" cy="17.0513" rx="14.3" ry="14.3846" fill="black"/>
</svg>
